<svg width="20" height="20" viewBox="0 0 20 20" fill="none" xmlns="http://www.w3.org/2000/svg">
<path d="M19.1 10C19.1 12.4135 18.1413 14.7281 16.4347 16.4347C14.7281 18.1413 12.4135 19.1 10 19.1C7.58655 19.1 5.27193 18.1413 3.56535 16.4347C1.85877 14.7281 0.900024 12.4135 0.900024 10C0.900024 7.58655 1.85877 5.27193 3.56535 3.56535C5.27193 1.85877 7.58655 0.900024 10 0.900024C12.4135 0.900024 14.7281 1.85877 16.4347 3.56535C18.1413 5.27193 19.1 7.58655 19.1 10ZM11.2021 16.0021C11.5209 15.6833 11.7 15.2509 11.7 14.8C11.7 14.3492 11.5209 13.9168 11.2021 13.5979C10.8833 13.2791 10.4509 13.1 10 13.1C9.54916 13.1 9.11675 13.2791 8.79794 13.5979C8.47913 13.9168 8.30002 14.3492 8.30002 14.8C8.30002 15.2509 8.47913 15.6833 8.79794 16.0021C9.11675 16.3209 9.54916 16.5 10 16.5C10.4509 16.5 10.8833 16.3209 11.2021 16.0021ZM10 3.50002C9.54916 3.50002 9.11675 3.67913 8.79794 3.99794C8.47913 4.31676 8.30002 4.74916 8.30002 5.20002V10C8.30002 10.4509 8.47913 10.8833 8.79794 11.2021C9.11675 11.5209 9.54916 11.7 10 11.7C10.4509 11.7 10.8833 11.5209 11.2021 11.2021C11.5209 10.8833 11.7 10.4509 11.7 10V5.20002C11.7 4.74916 11.5209 4.31676 11.2021 3.99794C10.8833 3.67913 10.4509 3.50002 10 3.50002Z" fill="#E02424" stroke="#E02424"/>
</svg>
