<svg width="14" height="13" viewBox="0 0 14 13" fill="none" xmlns="http://www.w3.org/2000/svg">
<path d="M12.9576 7.21518C13.0903 7.14867 13.2019 7.04655 13.2799 6.92024C13.3579 6.79393 13.3992 6.64842 13.3992 6.49998C13.3992 6.35154 13.3579 6.20603 13.2799 6.07972C13.2019 5.95341 13.0903 5.85129 12.9576 5.78478L1.75762 0.184781C1.61875 0.115296 1.46266 0.0877289 1.30839 0.105442C1.15412 0.123155 1.00834 0.185383 0.888833 0.284534C0.769325 0.383686 0.681257 0.515475 0.635372 0.663824C0.589486 0.812174 0.587767 0.970671 0.630424 1.11998L1.77362 5.11998C1.82144 5.28716 1.92243 5.43421 2.06129 5.53886C2.20016 5.64352 2.36934 5.70008 2.54322 5.69998L6.20002 5.69998C6.4122 5.69998 6.61568 5.78427 6.76571 5.9343C6.91574 6.08432 7.00002 6.28781 7.00002 6.49998C7.00002 6.71215 6.91574 6.91564 6.76571 7.06567C6.61568 7.21569 6.4122 7.29998 6.20002 7.29998L2.54322 7.29998C2.36934 7.29988 2.20016 7.35644 2.06129 7.4611C1.92243 7.56575 1.82144 7.7128 1.77362 7.87998L0.631223 11.88C0.588482 12.0292 0.590098 12.1877 0.635876 12.3361C0.681652 12.4844 0.769612 12.6163 0.889027 12.7155C1.00844 12.8147 1.15415 12.8771 1.30838 12.8949C1.46262 12.9128 1.61871 12.8853 1.75762 12.816L12.9576 7.21598V7.21518Z" fill="white"/>
</svg>
